# xmcd CD database file generated by OrangeCD 5.2
#
# Track frame offsets:
#	182
#	15010
#	26092
#	43690
#	58037
#	73020
#	85195
#	102667
#	121637
#	140075
#	157230
#	178905
#	190307
#	201567
#
# Disc length: 2915 seconds
#
# Revision: 5
# Processed by: cddbd v1.5.1PL0 Copyright (c) Steve Scherf et al.
# Submitted via: OrangeCD 5.2
#
DISCID=cc0b610e
DTITLE=Various Artist - New Country_Holiday Special 1994
DYEAR=1994
DGENRE=Country
TTITLE0=Sammy Kershaw - Christmas Time's a Coming
TTITLE1=Trisha Yearwood - Let it Snow!  Let It Snow!  Let It Snow!
TTITLE2=Tim O'Brien - Making Plans
TTITLE3=The Nashville Superpickers - Twelve Days of Christmas
TTITLE4=Alan Jackson - I Only Want You for Christmas
TTITLE5=Carlene Carter - Rockin' Little Christmas
TTITLE6=John Prine - Silent Night All Day Long
TTITLE7=Butch Baldassari - God Rest Ye Merry Gentlemen/We Three Kings
TTITLE8=Kathy Mattea - There's a New Kid in Town
TTITLE9=Joel Nava - Mama's Boy
TTITLE10=Charles Brown - Merry Christmas, Baby
TTITLE11=Daron Norwood - Working Elf Blues
TTITLE12=John Anderson - Christmas Time
TTITLE13=Jerry Jeff Walker - The Twelve Days of Christmas
EXTD=YEAR: 1994
EXTT0=
EXTT1=
EXTT2=
EXTT3=
EXTT4=
EXTT5=
EXTT6=
EXTT7=
EXTT8=
EXTT9=
EXTT10=
EXTT11=
EXTT12=
EXTT13=
PLAYORDER=
